<!DOCTYPE svg PUBLIC "-//W3C//DTD SVG 1.1//EN" "http://www.w3.org/Graphics/SVG/1.1/DTD/svg11.dtd">
<!-- Uploaded to: SVG Repo, www.svgrepo.com, Transformed by: SVG Repo Mixer Tools -->
<svg fill="#ffffff" height="800px" width="800px" version="1.1" id="Layer_1" xmlns="http://www.w3.org/2000/svg" xmlns:xlink="http://www.w3.org/1999/xlink" viewBox="-25.6 -25.6 563.20 563.20" xml:space="preserve">
<g id="SVGRepo_bgCarrier" stroke-width="0"/>
<g id="SVGRepo_tracerCarrier" stroke-linecap="round" stroke-linejoin="round"/>
<g id="SVGRepo_iconCarrier"> <g transform="translate(0 -1)"> <g> <g> <path d="M503.468,495.935h-85.333v-85.759c43.124-4.281,76.8-40.656,76.8-84.907c0-47.132-38.201-85.333-85.333-85.333 s-85.333,38.201-85.333,85.333c0,44.252,33.676,80.626,76.8,84.907v85.759h-128V9.533c0-4.713-3.821-8.533-8.533-8.533H25.601 c-4.713,0-8.533,3.821-8.533,8.533v486.402H8.534c-4.713,0-8.533,3.821-8.533,8.533s3.82,8.533,8.533,8.533h494.933 c4.713,0,8.533-3.821,8.533-8.533S508.18,495.935,503.468,495.935z M341.334,325.268c0-37.706,30.56-68.267,68.267-68.267 c37.706,0,68.267,30.56,68.267,68.267c0,34.814-26.059,63.516-59.733,67.717v-30.049l23.101-23.101 c3.332-3.333,3.332-8.736,0-12.068s-8.735-3.332-12.068,0l-19.566,19.566l-19.566-19.566c-3.332-3.332-8.735-3.332-12.068,0 s-3.332,8.735,0,12.068l23.101,23.101v30.049C367.393,388.784,341.334,360.083,341.334,325.268z M179.201,495.933h-68.267 v-68.267h68.267V495.933z M34.134,18.067h221.867v477.867h-59.733v-76.8c0-4.713-3.82-8.533-8.533-8.533h-85.333 c-4.713,0-8.533,3.82-8.533,8.533v76.8H34.134V18.067z"/> <path d="M68.268,257h153.6c4.713,0,8.533-3.82,8.533-8.533v-85.333c0-4.713-3.82-8.533-8.533-8.533h-153.6 c-4.713,0-8.533,3.82-8.533,8.533v85.333C59.734,253.18,63.555,257,68.268,257z M76.801,171.667h136.533v68.267H76.801V171.667z"/> <path d="M121.967,191.234L104.9,208.301c-3.332,3.332-3.332,8.735,0,12.068c3.332,3.332,8.735,3.332,12.068,0l17.067-17.067 c3.332-3.332,3.332-8.735,0-12.068C130.702,187.902,125.299,187.902,121.967,191.234z"/> <path d="M173.167,191.234L156.1,208.301c-3.332,3.332-3.332,8.735,0,12.068c3.332,3.332,8.735,3.332,12.068,0l17.067-17.067 c3.332-3.332,3.332-8.735,0-12.068C181.902,187.902,176.499,187.902,173.167,191.234z"/> <path d="M68.268,137.533h153.6c4.713,0,8.533-3.82,8.533-8.533V43.667c0-4.713-3.82-8.533-8.533-8.533h-153.6 c-4.713,0-8.533,3.82-8.533,8.533V129C59.734,133.713,63.555,137.533,68.268,137.533z M76.801,52.2h136.533v68.267H76.801V52.2z"/> <path d="M121.967,71.768L104.9,88.834c-3.332,3.332-3.332,8.735,0,12.068c3.332,3.332,8.735,3.332,12.068,0l17.067-17.067 c3.332-3.332,3.332-8.735,0-12.068S125.299,68.435,121.967,71.768z"/> <path d="M173.167,71.768L156.1,88.834c-3.332,3.332-3.332,8.735,0,12.068c3.332,3.332,8.735,3.332,12.068,0l17.067-17.067 c3.332-3.332,3.332-8.735,0-12.068C181.902,68.435,176.499,68.435,173.167,71.768z"/> <path d="M221.868,376.467c4.713,0,8.533-3.82,8.533-8.533V282.6c0-4.713-3.82-8.533-8.533-8.533h-153.6 c-4.713,0-8.533,3.82-8.533,8.533v85.333c0,4.713,3.82,8.533,8.533,8.533H221.868z M76.801,291.133h136.533V359.4H76.801V291.133 z"/> <path d="M121.967,310.701L104.9,327.768c-3.332,3.332-3.332,8.735,0,12.068c3.332,3.332,8.735,3.332,12.068,0l17.067-17.067 c3.332-3.332,3.332-8.735,0-12.068S125.299,307.369,121.967,310.701z"/> <path d="M173.167,310.701L156.1,327.768c-3.332,3.332-3.332,8.735,0,12.068c3.332,3.332,8.735,3.332,12.068,0l17.067-17.067 c3.332-3.332,3.332-8.735,0-12.068C181.902,307.369,176.499,307.369,173.167,310.701z"/> </g> </g> </g> </g>
</svg>